<?xml version="1.0" encoding="UTF-8" standalone="no"?>
<!-- Created with Inkscape (http://www.inkscape.org/) -->

<svg
   xmlns:dc="http://purl.org/dc/elements/1.1/"
   xmlns:cc="http://creativecommons.org/ns#"
   xmlns:rdf="http://www.w3.org/1999/02/22-rdf-syntax-ns#"
   xmlns:svg="http://www.w3.org/2000/svg"
   xmlns="http://www.w3.org/2000/svg"
   xmlns:xlink="http://www.w3.org/1999/xlink"
   xmlns:sodipodi="http://sodipodi.sourceforge.net/DTD/sodipodi-0.dtd"
   xmlns:inkscape="http://www.inkscape.org/namespaces/inkscape"
   width="377.11865"
   height="382.41522"
   id="svg5755"
   version="1.1"
   inkscape:version="0.48.5 r10040"
   sodipodi:docname="Documento nuevo 5">
  <defs
     id="defs5757">
    <path
       style="fill:none;stroke:none"
       d="M 899.97888,305.77334 C 774.61785,378.00446 779.18201,363.61826 660.75263,302.63117"
       id="path4715"
       inkscape:connector-curvature="0"
       sodipodi:nodetypes="cc" />
  </defs>
  <sodipodi:namedview
     id="base"
     pagecolor="#ffffff"
     bordercolor="#666666"
     borderopacity="1.0"
     inkscape:pageopacity="0.0"
     inkscape:pageshadow="2"
     inkscape:zoom="0.35"
     inkscape:cx="89.987885"
     inkscape:cy="371.20758"
     inkscape:document-units="px"
     inkscape:current-layer="layer1"
     showgrid="false"
     fit-margin-top="0"
     fit-margin-left="0"
     fit-margin-right="0"
     fit-margin-bottom="0"
     inkscape:window-width="1909"
     inkscape:window-height="999"
     inkscape:window-x="1920"
     inkscape:window-y="26"
     inkscape:window-maximized="1" />
  <metadata
     id="metadata5760">
    <rdf:RDF>
      <cc:Work
         rdf:about="">
        <dc:format>image/svg+xml</dc:format>
        <dc:type
           rdf:resource="http://purl.org/dc/dcmitype/StillImage" />
        <dc:title></dc:title>
      </cc:Work>
    </rdf:RDF>
  </metadata>
  <g
     inkscape:label="Capa 1"
     inkscape:groupmode="layer"
     id="layer1"
     transform="translate(-260.01212,-521.15454)">
    <rect
       style="fill:#cccccc;stroke:none"
       id="rect5698"
       width="377.11865"
       height="382.41522"
       x="260.01212"
       y="521.15454"
       inkscape:export-filename="/home/allancorra/Imágenes/afiche/LOGO.png"
       inkscape:export-xdpi="90"
       inkscape:export-ydpi="90" />
    <path
       inkscape:connector-curvature="0"
       id="path572"
       style="fill:#1a1a1a;fill-opacity:1;fill-rule:nonzero;stroke:none"
       d="m 597.51218,854.89761 c 0,8.975 -7.275,16.25 -16.25,16.25 l -267.5,0 c -8.975,0 -16.25,-7.275 -16.25,-16.25 l 0,-144.07375 c 0,-8.97375 7.275,-16.25 16.25,-16.25 l 267.5,0 c 8.975,0 16.25,7.27625 16.25,16.25 l 0,144.07375 z" />
    <path
       inkscape:connector-curvature="0"
       id="path576"
       style="fill:#292929;fill-opacity:1;fill-rule:nonzero;stroke:none"
       d="m 597.51218,851.14761 c 0,8.975 -7.275,16.25 -16.25,16.25 l -267.5,0 c -8.975,0 -16.25,-7.275 -16.25,-16.25 l 0,-144.07375 c 0,-8.97375 7.275,-16.25 16.25,-16.25 l 267.5,0 c 8.975,0 16.25,7.27625 16.25,16.25 l 0,144.07375 z" />
    <path
       inkscape:connector-curvature="0"
       id="path580"
       style="fill:#f1f1f1;fill-opacity:1;fill-rule:nonzero;stroke:none"
       d="m 313.76218,858.64761 c -4.13625,0 -7.5,-3.36375 -7.5,-7.5 l 0,-144.07375 c 0,-4.135 3.36375,-7.5 7.5,-7.5 l 267.5,0 c 4.13625,0 7.5,3.365 7.5,7.5 l 0,144.07375 c 0,4.13625 -3.36375,7.5 -7.5,7.5 l -267.5,0 z" />
    <path
       inkscape:connector-curvature="0"
       id="path584"
       style="fill:#292929;fill-opacity:1;fill-rule:nonzero;stroke:none"
       d="m 572.82468,843.60986 c 0,2.76125 -2.23875,5 -5,5 l -240.625,0 c -2.76125,0 -5,-2.23875 -5,-5 l 0,-33.125 c 0,-2.76125 2.23875,-5 5,-5 l 240.625,0 c 2.76125,0 5,2.23875 5,5 l 0,33.125 z" />
    <path
       inkscape:connector-curvature="0"
       id="path588"
       style="fill:#e5e5e5;fill-opacity:1;fill-rule:nonzero;stroke:none"
       d="m 588.76218,707.07411 c 0,-4.13625 -3.36375,-7.5 -7.5,-7.5 l -267.5,0 c -4.13625,0 -7.5,3.36375 -7.5,7.5 l 0,0.94875 68.47125,0 c 9.3225,31.3925 38.36,54.30375 72.77875,54.30375 34.42125,0 63.4575,-22.91125 72.78,-54.30375 l 68.47,0 0,-0.94875 z" />
    <path
       inkscape:connector-curvature="0"
       id="path592"
       style="fill:#292929;fill-opacity:1;fill-rule:nonzero;stroke:none"
       d="m 521.49168,677.05586 c 0,40.8575 -33.12125,73.98 -73.97875,73.98 -40.8575,0 -73.97875,-33.1225 -73.97875,-73.98 0,-40.8575 33.12125,-73.97875 73.97875,-73.97875 40.8575,0 73.97875,33.12125 73.97875,73.97875" />
    <path
       inkscape:connector-curvature="0"
       id="path596"
       style="fill:#ffffff;fill-opacity:1;fill-rule:nonzero;stroke:none"
       d="m 382.90405,692.06686 c -8.29,-35.68 13.915,-71.32875 49.5975,-79.6175 35.6825,-8.2925 71.32875,13.9125 79.62,49.595 8.29125,35.68125 -13.915,71.32875 -49.59625,79.61875 -35.6825,8.29375 -71.33,-13.9125 -79.62125,-49.59625" />
    <path
       inkscape:connector-curvature="0"
       id="path600"
       style="fill:#292929;fill-opacity:1;fill-rule:nonzero;stroke:none"
       d="m 459.21993,669.09686 -28.255,17.54625 -0.3125,-0.505 28.255,-17.54625 0.3125,0.505 z" />
    <path
       inkscape:connector-curvature="0"
       id="path604"
       style="fill:#292929;fill-opacity:1;fill-rule:nonzero;stroke:none"
       d="m 460.74455,643.55736 -10e-4,0 -0.36375,0.47 c -0.0125,-0.006 -3.615,-2.8075 -8.93125,-6.05875 -5.31875,-3.25125 -12.16875,-6.21875 -18.94,-7.97875 l -0.1675,-0.72125 0.28625,0.004 c 13.9775,3.0175 28.1,14.27625 28.1175,14.285" />
    <path
       inkscape:connector-curvature="0"
       id="path608"
       style="fill:#292929;fill-opacity:1;fill-rule:nonzero;stroke:none"
       d="m 411.30005,641.96186 c -2.44625,9.07375 -2.8575,17.4525 -2.6525,23.55875 0.2025,6.10625 1.0125,9.91875 1.01375,9.92625 l -0.58,0.12875 c 0,-0.0312 -3.28875,-15.4725 1.64625,-33.76875 l 0.5725,0.155 z" />
    <path
       inkscape:connector-curvature="0"
       id="path612"
       style="fill:#292929;fill-opacity:1;fill-rule:nonzero;stroke:none"
       d="m 482.8588,682.79311 c 3.125,13.4775 -0.72875,28.9975 -0.72875,29.0225 l -10e-4,0 -0.5775,-0.14375 c 10e-4,-0.01 0.955,-3.855 1.52375,-9.385 0.57,-5.5275 0.74875,-12.72125 -0.795,-19.35875 -0.22,-0.94625 -0.475,-1.88375 -0.77,-2.80375 l 0.56625,-0.18375 c 0.30125,0.93875 0.56,1.89125 0.7825,2.8525" />
    <path
       inkscape:connector-curvature="0"
       id="path616"
       style="fill:#292929;fill-opacity:1;fill-rule:nonzero;stroke:none"
       d="m 448.49368,721.68348 c 5.78125,2.43875 10.36125,3.63875 10.4175,3.65625 l -0.15,0.575 c -0.0212,-0.0125 -18.55125,-4.84375 -28.28375,-14.89 l 0.4275,-0.4125 c 4.76625,4.93 11.775,8.625 17.58875,11.07125" />
    <path
       inkscape:connector-curvature="0"
       id="path620"
       style="fill:#292929;fill-opacity:1;fill-rule:nonzero;stroke:none"
       d="m 483.57905,624.27873 c 2.08,8.96375 -0.85625,17.2475 -0.86125,17.27375 l 0,0 -0.55875,-0.1975 c 0,-0.006 0.71875,-2.03125 1.18625,-5.17625 0.46625,-3.1425 0.6775,-7.38375 -0.3425,-11.765 -0.165,-0.71 -0.36125,-1.425 -0.59625,-2.14 l 0.56375,-0.18375 c 0.24,0.73125 0.4425,1.4625 0.61125,2.18875" />
    <path
       inkscape:connector-curvature="0"
       id="path624"
       style="fill:#292929;fill-opacity:1;fill-rule:nonzero;stroke:none"
       d="m 393.01018,689.96848 c 2.76,1.17 4.5975,1.40875 4.60125,1.40875 l 0,0 -0.0763,0.59125 c -0.0375,-0.007 -7.65875,-1.01375 -14.95375,-8.55125 l 0.43,-0.4125 c 3.58,3.7025 7.23875,5.795 10,6.96375" />
    <path
       inkscape:connector-curvature="0"
       id="path628"
       style="fill:#292929;fill-opacity:1;fill-rule:nonzero;stroke:none"
       d="m 409.4653,713.35961 c 0,0.0125 -0.69125,6.55875 1.2525,14.92625 0.2175,0.92875 0.4675,1.88 0.75125,2.84875 l -0.28625,0.0825 c -0.285,-0.97125 -0.53625,-1.9275 -0.75375,-2.8625 -1.955,-8.4175 -1.26,-15.0175 -1.25875,-15.025 l 0.295,0.03 z" />
    <path
       inkscape:connector-curvature="0"
       id="path632"
       style="fill:#292929;fill-opacity:1;fill-rule:nonzero;stroke:none"
       d="m 511.83468,671.67986 -0.4325,0.4075 c -1.33375,-1.4275 -5.13125,-3.44 -8.555,-5.04375 -3.43,-1.6125 -6.50125,-2.8475 -6.5075,-2.84875 l 0.22125,-0.5525 c 0.0225,0.02 12.3125,4.92875 15.27375,8.0375" />
    <path
       inkscape:connector-curvature="0"
       id="path636"
       style="fill:#292929;fill-opacity:1;fill-rule:nonzero;stroke:none"
       d="m 512.67943,690.31761 c -6.10875,19.765 -18.69875,27.4325 -18.7175,27.445 l -10e-4,0 -0.15375,-0.2525 c 0,-0.01 3.12,-1.8975 7.00875,-6.26125 3.89,-4.36 8.53875,-11.18125 11.57875,-21.01875 l 0.285,0.0875 z" />
    <path
       inkscape:connector-curvature="0"
       id="path640"
       style="fill:#ffffff;fill-opacity:1;fill-rule:nonzero;stroke:none"
       d="m 458.31905,737.84448 c 0,0 -15.45375,4.81375 -31.17125,2.36375 0,0 17.98375,3.44375 31.35,-1.5925 l -0.17875,-0.77125 z" />
    <path
       inkscape:connector-curvature="0"
       id="path644"
       style="fill:#292929;fill-opacity:1;fill-rule:nonzero;stroke:none"
       d="m 399.9108,637.85661 c 0,0 -5.32375,1.59125 -10.15,7.9475 0,0 2.64125,-4.93375 10.1225,-9.1625 l 0.0275,1.215 z" />
    <path
       inkscape:connector-curvature="0"
       id="path648"
       style="fill:#292929;fill-opacity:1;fill-rule:nonzero;stroke:none"
       d="m 433.2483,618.56948 c 0,0 5.6025,-3.89375 16.61,-7.06 0,0 -10.8075,2.0525 -17.18125,6.125 l 0.57125,0.935 z" />
    <path
       inkscape:connector-curvature="0"
       id="path652"
       style="fill:#292929;fill-opacity:1;fill-rule:nonzero;stroke:none"
       d="m 496.05218,716.47111 c -4.76625,10.72375 -17.20125,19.30625 -17.20125,19.30625 -12.1,4.495 -21.6575,3.34625 -21.6575,3.34625 l 0.38,-14.11875 c 10.92,-3.755 24.8425,-14.71875 24.8425,-14.71875 l 13.63625,6.185 z" />
    <path
       inkscape:connector-curvature="0"
       id="path656"
       style="fill:#292929;fill-opacity:1;fill-rule:nonzero;stroke:none"
       d="m 482.8198,683.14836 c 0,0 -19.40375,-11.75875 -24.855,-13.3375 0,0 1.5425,-20.4875 0.88,-26.84125 0,0 13.545,-5.585 24.565,-3.6725 0,0 9.92875,9.485 14.61375,25.2725 0,0 -8.2025,13.7 -15.20375,18.57875" />
    <path
       inkscape:connector-curvature="0"
       id="path660"
       style="fill:#292929;fill-opacity:1;fill-rule:nonzero;stroke:none"
       d="m 434.55443,630.31386 c 0,0 -16.6175,5.48875 -24.3225,15.20875 0,0 -6.065,-5.0975 -11.8875,-7.4075 0,0 7.1825,-14.0825 14.68375,-17.99 0,0 9.7175,-4.7575 22.81125,-3.53 0,0 -1.7275,5.685 -1.285,13.71875" />
    <path
       inkscape:connector-curvature="0"
       id="path664"
       style="fill:#292929;fill-opacity:1;fill-rule:nonzero;stroke:none"
       d="m 432.65993,712.29023 c 0,0 -0.35625,-19.03125 0.255,-26.89875 0,0 -16.34125,-8.20125 -23.94875,-12.93875 0,0 -12.6,12.28 -13.14,18.71 0,0 2.69375,14.21625 13.42625,24.5325 0,0 10.9475,3.3525 23.4075,-3.405" />
    <path
       inkscape:connector-curvature="0"
       id="path668"
       style="fill:#292929;fill-opacity:1;fill-rule:nonzero;stroke:none"
       d="m 431.37818,711.48698 c 0,0 -0.33625,-18.08 0.245,-25.55375 0,0 -15.525,-7.79 -22.7525,-12.2925 0,0 -11.97,11.66875 -12.4825,17.7725 0,0 2.56,13.51 12.755,23.30875 0,0 10.39875,3.185 22.235,-3.235" />
    <path
       inkscape:connector-curvature="0"
       id="path672"
       style="fill:#292929;fill-opacity:1;fill-rule:nonzero;stroke:none"
       d="m 512.03118,693.41086 c 2.8475,-10.02 3.0075,-20.79625 0.30125,-31.41625 -0.0263,-0.10625 -0.0525,-0.21625 -0.0788,-0.3225 -0.20625,3.05625 -0.70125,7.34875 -1.89875,9.5875 0,0 2.9875,12.8625 1.67625,22.15125" />
    <path
       inkscape:connector-curvature="0"
       id="path676"
       style="fill:#292929;fill-opacity:1;fill-rule:nonzero;stroke:none"
       d="m 483.12005,624.92573 c 0,0 4.32875,0.62375 8.91625,2.66875 -10.15875,-9.1275 -23.0125,-15.0425 -36.81375,-16.6525 7.35125,1.66625 20.3525,5.64625 27.8975,13.98375" />
    <path
       inkscape:connector-curvature="0"
       id="path680"
       style="fill:#292929;fill-opacity:1;fill-rule:nonzero;stroke:none"
       d="m 381.7798,666.59561 c -1.25,7.83875 -1.11,16.0225 0.62875,24.22875 0.0537,-2.495 0.4125,-4.9975 1.38125,-6.82875 0,0 -1.7175,-8.075 -2.01,-17.4" />
    <path
       inkscape:connector-curvature="0"
       id="path684"
       style="fill:#292929;fill-opacity:1;fill-rule:nonzero;stroke:none"
       d="m 410.8923,729.75236 c -4.8025,-0.6725 -10.59875,-5.92875 -14.5775,-10.1675 8.6275,10.36875 20.2425,17.89625 33.19875,21.5475 -9.18375,-3.78875 -18.62125,-11.38 -18.62125,-11.38" />
    <path
       d="m 454.63618,670.54461 -19.65625,12.16875 c -1.395,0.86625 -3.7025,0.94375 -5.15375,0.1775 l -17.46125,-9.22875 c -1.4525,-0.76625 -1.4125,-0.8475 0.085,-0.1775 l 17.03625,7.6075 c 1.49875,0.67125 3.885,0.585 5.3325,-0.1875 l 19.72375,-10.525 c 1.44625,-0.7725 1.48875,-0.69875 0.0937,0.165"
       style="opacity:0.19999701;fill:#292929;fill-opacity:1;fill-rule:nonzero;stroke:none"
       id="path700"
       inkscape:connector-curvature="0" />
    <path
       d="m 483.64618,683.41573 c 0,0 2.665,17.37375 -0.95125,26.755 l 12.87875,5.54875 -11.46625,-6.03 c 0,0 2.79,-11.6275 -0.46125,-26.27375"
       style="opacity:0.19999701;fill:#292929;fill-opacity:1;fill-rule:nonzero;stroke:none"
       id="path704"
       inkscape:connector-curvature="0" />
    <path
       d="m 496.26468,716.72623 c 0,0 -3.11125,8.70375 -14.03375,16.83375 0,0 10.26875,-5.68875 14.03375,-16.83375"
       style="opacity:0.19999701;fill:#292929;fill-opacity:1;fill-rule:nonzero;stroke:none"
       id="path708"
       inkscape:connector-curvature="0" />
    <path
       d="m 459.5568,642.09248 c 0,0 -12.695,-10.01125 -24.6125,-12.73375 0,0 -0.635,-4.4775 1.075,-11.99125 0,0 -0.9025,7.275 -0.24875,11.39375 0,0 11.78875,2.39375 23.78625,13.33125"
       style="opacity:0.19999701;fill:#292929;fill-opacity:1;fill-rule:nonzero;stroke:none"
       id="path712"
       inkscape:connector-curvature="0" />
    <path
       d="m 410.6628,645.62523 c 0,0 -2.705,11.98875 -1.05125,26.3225 0,0 -0.20875,-16.65125 1.42875,-24.0475 0.2125,-0.96 1.06,-2.5425 1.765,-3.23 2.675,-2.61875 9.84375,-8.805 21.45,-13.6775 0,0 -13.31625,3.4 -23.5925,14.6325"
       style="opacity:0.19999701;fill:#292929;fill-opacity:1;fill-rule:nonzero;stroke:none"
       id="path716"
       inkscape:connector-curvature="0" />
    <path
       d="m 408.2653,672.71748 c 0,0 -11.27375,10.54875 -12.655,17.73125 0,0 0.5775,-8.6725 12.655,-17.73125"
       style="opacity:0.19999701;fill:#292929;fill-opacity:1;fill-rule:nonzero;stroke:none"
       id="path720"
       inkscape:connector-curvature="0" />
    <path
       d="m 512.12155,662.04486 c -5.47875,-23.58 -22.90625,-41.26625 -44.3925,-48.1625 5.205,7.51875 9.12375,16.11375 11.31875,25.565 9.33,40.14875 -15.655,80.26125 -55.80625,89.59 -4.815,1.1175 -9.62875,1.73125 -14.3875,1.895 14.97375,10.73625 34.3125,15.23125 53.67125,10.73 35.68125,-8.28875 57.8875,-43.93625 49.59625,-79.6175"
       style="opacity:0.10000598;fill:#292929;fill-opacity:1;fill-rule:nonzero;stroke:none"
       id="path736"
       inkscape:connector-curvature="0" />
    <text
       transform="scale(1.060423,0.94301991)"
       sodipodi:linespacing="125%"
       id="text4576"
       y="845.76569"
       x="304.13782"
       style="font-size:36.44759369px;font-style:normal;font-weight:normal;line-height:125%;letter-spacing:0px;word-spacing:0px;fill:#292929;fill-opacity:1;stroke:none;font-family:Sans"
       xml:space="preserve"><tspan
         style="font-style:normal;font-variant:normal;font-weight:bold;font-stretch:normal;fill:#292929;fill-opacity:1;font-family:Droid Sans;-inkscape-font-specification:Droid Sans Bold"
         y="845.76569"
         x="304.13782"
         id="tspan4578"
         sodipodi:role="line">FÚTBOL SALA</tspan></text>
    <text
       style="font-size:15px"
       id="text790"
       x="388.20074"
       y="839.23486">
      <tspan
         style="font-size:32.5px;font-variant:normal;font-weight:normal;font-stretch:normal;writing-mode:lr-tb;fill:#f1f1f1;fill-opacity:1;fill-rule:nonzero;stroke:none;font-family:ChunkFive;-inkscape-font-specification:ChunkFive"
         x="388.20074 400.87576 424.79575 446.24579 471.82318 495.77567"
         y="839.23486"
         sodipodi:role="line"
         id="tspan792">-CLUB-</tspan>
    </text>
    <text
       sodipodi:linespacing="125%"
       id="text4576-3"
       style="font-size:20.99633598px;font-style:normal;font-weight:normal;line-height:125%;letter-spacing:0px;word-spacing:0px;fill:#292929;fill-opacity:1;stroke:none;font-family:Sans"
       xml:space="preserve"
       transform="matrix(-1.1502269,0,0,-1.6957873,1350.5436,1180.4429)"><textPath
         xlink:href="#path4715"
         id="textPath4717"><tspan
   rotate="0 0 0 0 0 0 0 0 0 0 0 0 0 0 0 0 0 0 0 0 0"
   id="tspan4578-3"
   style="font-style:normal;font-variant:normal;font-weight:bold;font-stretch:normal;fill:#292929;fill-opacity:1;font-family:Droid Sans;-inkscape-font-specification:Droid Sans Bold">SESIÓN ENTRANAMIENTO</tspan></textPath></text>
  </g>
</svg>
