<?xml version="1.0" encoding="UTF-8" standalone="no"?>
<!-- Created with Inkscape (http://www.inkscape.org/) -->

<svg
   xmlns:dc="http://purl.org/dc/elements/1.1/"
   xmlns:cc="http://creativecommons.org/ns#"
   xmlns:rdf="http://www.w3.org/1999/02/22-rdf-syntax-ns#"
   xmlns:svg="http://www.w3.org/2000/svg"
   xmlns="http://www.w3.org/2000/svg"
   xmlns:xlink="http://www.w3.org/1999/xlink"
   xmlns:sodipodi="http://sodipodi.sourceforge.net/DTD/sodipodi-0.dtd"
   xmlns:inkscape="http://www.inkscape.org/namespaces/inkscape"
   width="1188.5472"
   height="1188.1295"
   id="svg5755"
   version="1.1"
   inkscape:version="0.48.5 r10040"
   sodipodi:docname="logo.svg">
  <defs
     id="defs5757">
    <path
       style="fill:none;stroke:none"
       d="M 899.97888,305.77334 C 774.61785,378.00446 779.18201,363.61826 660.75263,302.63117"
       id="path4715"
       inkscape:connector-curvature="0"
       sodipodi:nodetypes="cc" />
  </defs>
  <sodipodi:namedview
     id="base"
     pagecolor="#ffffff"
     bordercolor="#666666"
     borderopacity="1.0"
     inkscape:pageopacity="0.0"
     inkscape:pageshadow="2"
     inkscape:zoom="0.35"
     inkscape:cx="901.41645"
     inkscape:cy="371.20758"
     inkscape:document-units="px"
     inkscape:current-layer="layer1"
     showgrid="false"
     fit-margin-top="0"
     fit-margin-left="0"
     fit-margin-right="0"
     fit-margin-bottom="0"
     inkscape:window-width="1909"
     inkscape:window-height="999"
     inkscape:window-x="1920"
     inkscape:window-y="26"
     inkscape:window-maximized="1" />
  <metadata
     id="metadata5760">
    <rdf:RDF>
      <cc:Work
         rdf:about="">
        <dc:format>image/svg+xml</dc:format>
        <dc:type
           rdf:resource="http://purl.org/dc/dcmitype/StillImage" />
        <dc:title></dc:title>
      </cc:Work>
    </rdf:RDF>
  </metadata>
  <g
     inkscape:label="Capa 1"
     inkscape:groupmode="layer"
     id="layer1"
     transform="translate(551.41644,284.55975)">
    <rect
       style="fill:#cccccc;stroke:none"
       id="rect5698"
       width="1188.5472"
       height="1188.1295"
       x="-551.41644"
       y="-284.55975"
       inkscape:export-filename="/home/allancorra/Imágenes/afiche/LOGO.png"
       inkscape:export-xdpi="90"
       inkscape:export-ydpi="90" />
    <path
       inkscape:connector-curvature="0"
       id="path572"
       style="fill:#1a1a1a;fill-opacity:1;fill-rule:nonzero;stroke:none"
       d="m 512.26672,752.34978 c 0,27.88452 -22.92828,50.48729 -51.21437,50.48729 l -843.06724,0 c -28.28609,0 -51.21437,-22.60277 -51.21437,-50.48729 l 0,-447.62411 c 0,-27.88062 22.92828,-50.48728 51.21437,-50.48728 l 843.06724,0 c 28.28609,0 51.21437,22.60666 51.21437,50.48728 l 0,447.62411 z" />
    <path
       inkscape:connector-curvature="0"
       id="path576"
       style="fill:#292929;fill-opacity:1;fill-rule:nonzero;stroke:none"
       d="m 512.26672,740.69887 c 0,27.88452 -22.92828,50.48728 -51.21437,50.48728 l -843.06724,0 c -28.28609,0 -51.21437,-22.60276 -51.21437,-50.48728 l 0,-447.62411 c 0,-27.88062 22.92828,-50.48728 51.21437,-50.48728 l 843.06724,0 c 28.28609,0 51.21437,22.60666 51.21437,50.48728 l 0,447.62411 z" />
    <path
       inkscape:connector-curvature="0"
       id="path580"
       style="fill:#f1f1f1;fill-opacity:1;fill-rule:nonzero;stroke:none"
       d="m -382.01489,764.0007 c -13.03603,0 -23.6374,-10.45087 -23.6374,-23.30183 l 0,-447.62411 c 0,-12.84706 10.60137,-23.30181 23.6374,-23.30181 l 843.06724,0 c 13.03603,0 23.6374,10.45475 23.6374,23.30181 l 0,447.62411 c 0,12.85096 -10.60137,23.30183 -23.6374,23.30183 l -843.06724,0 z" />
    <path
       inkscape:connector-curvature="0"
       id="path584"
       style="fill:#292929;fill-opacity:1;fill-rule:nonzero;stroke:none"
       d="m 434.46028,717.27977 c 0,8.57895 -7.05576,15.53454 -15.75827,15.53454 l -758.36656,0 c -8.7025,0 -15.75826,-6.95559 -15.75826,-15.53454 l 0,-102.91638 c 0,-8.57895 7.05576,-15.53455 15.75826,-15.53455 l 758.36656,0 c 8.70251,0 15.75827,6.9556 15.75827,15.53455 l 0,102.91638 z" />
    <path
       inkscape:connector-curvature="0"
       id="path588"
       style="fill:#e5e5e5;fill-opacity:1;fill-rule:nonzero;stroke:none"
       d="m 484.68975,293.07554 c 0,-12.85096 -10.60137,-23.30183 -23.6374,-23.30183 l -843.06724,0 c -13.03603,0 -23.6374,10.45087 -23.6374,23.30183 l 0,2.94768 215.79763,0 c 29.38129,97.53366 120.897424,168.71684 229.37339,168.71684 108.48385,0 199.99603,-71.18318 229.37732,-168.71684 l 215.7937,0 0,-2.94768 z" />
    <path
       inkscape:connector-curvature="0"
       id="path592"
       style="fill:#292929;fill-opacity:1;fill-rule:nonzero;stroke:none"
       d="m 272.67646,199.81156 c 0,126.94055 -104.3867,229.84916 -233.155366,229.84916 -128.768675,0 -233.155364,-102.90861 -233.155364,-229.84916 0,-126.940564 104.386689,-229.845292 233.155364,-229.845292 128.768666,0 233.155366,102.904728 233.155366,229.845292" />
    <path
       inkscape:connector-curvature="0"
       id="path596"
       style="fill:#ffffff;fill-opacity:1;fill-rule:nonzero;stroke:none"
       d="M -164.10369,246.44937 C -190.2309,135.59484 -120.24844,24.837397 -7.7895711,-0.91499929 104.6693,-26.679046 217.01392,42.30988 243.14506,153.17218 269.27621,264.0306 199.28981,374.78415 86.834878,400.54043 -25.623989,426.30837 -137.97255,357.31556 -164.10369,246.44937" />
    <path
       inkscape:connector-curvature="0"
       id="path600"
       style="fill:#292929;fill-opacity:1;fill-rule:nonzero;stroke:none"
       d="m 76.417498,175.08366 -89.049963,54.51462 -0.984891,-1.569 89.049963,-54.51461 0.984891,1.56899 z" />
    <path
       inkscape:connector-curvature="0"
       id="path604"
       style="fill:#292929;fill-opacity:1;fill-rule:nonzero;stroke:none"
       d="m 81.222572,95.734743 -0.0031,0 -1.146414,1.460248 C 80.03361,97.17635 68.67978,88.472343 51.924803,78.371003 35.161947,68.269663 13.573122,59.049909 -7.7675089,53.581747 l -0.5279025,-2.240858 0.9021609,0.01243 C 36.658983,60.728419 81.168206,95.708337 81.22336,95.735522" />
    <path
       inkscape:connector-curvature="0"
       id="path608"
       style="fill:#292929;fill-opacity:1;fill-rule:nonzero;stroke:none"
       d="m -74.609343,90.777669 c -7.709732,28.191321 -9.005851,54.223341 -8.359763,73.194911 0.638204,18.97156 3.191049,30.81665 3.194991,30.83996 l -1.827963,0.40001 c 0,-0.097 -10.365003,-48.07166 5.188405,-104.916452 l 1.80433,0.481571 z" />
    <path
       inkscape:connector-curvature="0"
       id="path612"
       style="fill:#292929;fill-opacity:1;fill-rule:nonzero;stroke:none"
       d="m 150.91902,217.63667 c 9.84891,41.87338 -2.29677,90.09261 -2.29677,90.17028 l -0.003,0 -1.82008,-0.44661 c 0.003,-0.031 3.00983,-11.97714 4.80233,-29.15835 1.79645,-17.17345 2.3598,-39.52378 -2.50556,-60.14589 -0.69336,-2.93991 -1.49703,-5.85263 -2.42677,-8.711 l 1.78462,-0.57089 c 0.94943,2.91661 1.76493,5.87594 2.46617,8.86246" />
    <path
       inkscape:connector-curvature="0"
       id="path616"
       style="fill:#292929;fill-opacity:1;fill-rule:nonzero;stroke:none"
       d="m 42.612078,338.46553 c 18.220495,7.57698 32.655066,11.30527 32.832347,11.35964 l -0.472748,1.78648 c -0.06682,-0.0388 -58.467107,-15.0491 -89.140572,-46.26189 l 1.347332,-1.2816 c 15.0215664,15.31706 37.110716,26.7971 55.433641,34.39737" />
    <path
       inkscape:connector-curvature="0"
       id="path620"
       style="fill:#292929;fill-opacity:1;fill-rule:nonzero;stroke:none"
       d="m 153.189,35.837783 c 6.55543,27.849561 -2.69861,53.586423 -2.71436,53.667979 l 0,0 -1.76099,-0.613614 c 0,-0.01865 2.26526,-6.31091 3.73865,-16.082141 1.46946,-9.763463 2.13524,-22.940643 -1.07945,-36.552791 -0.52001,-2.205906 -1.13853,-4.427346 -1.87917,-6.648786 l 1.77675,-0.570895 c 0.7564,2.271927 1.39461,4.543855 1.92644,6.800248" />
    <path
       inkscape:connector-curvature="0"
       id="path624"
       style="fill:#292929;fill-opacity:1;fill-rule:nonzero;stroke:none"
       d="m -132.25268,239.92989 c 8.69857,3.63509 14.48973,4.37687 14.50155,4.37687 l 0,0 -0.24048,1.83696 c -0.11818,-0.0217 -24.13771,-3.14964 -47.12903,-26.56796 l 1.35521,-1.28161 c 11.28292,11.50334 22.81403,18.00454 31.51653,21.63574" />
    <path
       inkscape:connector-curvature="0"
       id="path628"
       style="fill:#292929;fill-opacity:1;fill-rule:nonzero;stroke:none"
       d="m -80.391841,312.60402 c 0,0.0388 -2.178578,20.37745 3.947447,46.37451 0.68548,2.88554 1.473396,5.84099 2.367672,8.85081 l -0.90216,0.25632 c -0.898218,-3.01758 -1.690067,-5.98857 -2.375556,-8.89353 -6.161484,-26.15241 -3.971081,-46.65801 -3.967139,-46.68132 l 0.929736,0.0932 z" />
    <path
       inkscape:connector-curvature="0"
       id="path632"
       style="fill:#292929;fill-opacity:1;fill-rule:nonzero;stroke:none"
       d="m 242.24094,183.10881 -1.36308,1.26607 c -4.20352,-4.43512 -16.17192,-10.68777 -26.9624,-15.67048 -10.81017,-5.00989 -20.48968,-8.84693 -20.50939,-8.85082 l 0.69731,-1.71656 c 0.0709,0.0622 38.80473,15.31318 48.13756,24.97179" />
    <path
       inkscape:connector-curvature="0"
       id="path636"
       style="fill:#292929;fill-opacity:1;fill-rule:nonzero;stroke:none"
       d="m 244.9033,241.01461 c -19.25265,61.40807 -58.93197,85.2303 -58.99106,85.26913 l -0.003,0 -0.48456,-0.78449 c 0,-0.031 9.83315,-5.89536 22.08914,-19.45314 12.25994,-13.54613 26.91119,-34.73913 36.49221,-65.30335 l 0.89822,0.27185 z" />
    <path
       inkscape:connector-curvature="0"
       id="path640"
       style="fill:#ffffff;fill-opacity:1;fill-rule:nonzero;stroke:none"
       d="m 73.578236,388.6763 c 0,0 -48.704861,14.95588 -98.24097,7.34395 0,0 56.678544,10.69943 98.804328,-4.94775 l -0.563358,-2.3962 z" />
    <path
       inkscape:connector-curvature="0"
       id="path644"
       style="fill:#292929;fill-opacity:1;fill-rule:nonzero;stroke:none"
       d="m -110.50432,78.023028 c 0,0 -16.7786,4.943871 -31.98927,24.692172 0,0 8.3243,-15.328723 31.90261,-28.467067 l 0.0867,3.774895 z" />
    <path
       inkscape:connector-curvature="0"
       id="path648"
       style="fill:#292929;fill-opacity:1;fill-rule:nonzero;stroke:none"
       d="m -5.436074,18.09966 c 0,0 17.657137,-12.097529 52.34896,-21.9347814 0,0 -34.061492,6.3769319 -54.1493417,19.0298204 l 1.8003817,2.904961 z" />
    <path
       inkscape:connector-curvature="0"
       id="path652"
       style="fill:#292929;fill-opacity:1;fill-rule:nonzero;stroke:none"
       d="m 192.49998,322.27117 c -15.02157,33.31772 -54.21238,59.98277 -54.21238,59.98277 -38.135,13.96557 -68.256927,10.3965 -68.256927,10.3965 l 1.197628,-43.86568 c 34.416049,-11.66644 78.294949,-45.72983 78.294949,-45.72983 l 42.97673,19.21624 z" />
    <path
       inkscape:connector-curvature="0"
       id="path656"
       style="fill:#292929;fill-opacity:1;fill-rule:nonzero;stroke:none"
       d="m 150.7961,218.7404 c 0,0 -61.153886,-36.53337 -78.334336,-41.4384 0,0 4.861424,-63.65282 2.773454,-83.393343 0,0 42.689142,-17.35209 77.420362,-11.410125 0,0 31.29198,29.469038 46.05747,78.519368 0,0 -25.85143,42.56467 -47.91695,57.7225" />
    <path
       inkscape:connector-curvature="0"
       id="path660"
       style="fill:#292929;fill-opacity:1;fill-rule:nonzero;stroke:none"
       d="m -1.3196049,54.588387 c 0,0 -52.3725981,17.05305 -76.6560841,47.252213 0,0 -19.114782,-15.837475 -37.465281,-23.014435 0,0 22.636754,-43.753054 46.278094,-55.893303 0,0 30.626185,-14.7811224 71.8931452,-10.967391 0,0 -5.4444809,17.662781 -4.0498741,42.622916" />
    <path
       inkscape:connector-curvature="0"
       id="path664"
       style="fill:#292929;fill-opacity:1;fill-rule:nonzero;stroke:none"
       d="m -7.2904124,309.28156 c 0,0 -1.1227762,-59.12838 0.8036723,-83.57199 0,0 -51.5019539,-25.48054 -75.4781579,-40.19952 0,0 -39.710822,38.15284 -41.412722,58.13027 0,0 8.48977,44.1686 42.314882,76.22026 0,0 34.502727,10.41591 73.7723256,-10.57902" />
    <path
       inkscape:connector-curvature="0"
       id="path668"
       style="fill:#292929;fill-opacity:1;fill-rule:nonzero;stroke:none"
       d="m -11.330044,306.78593 c 0,0 -1.059743,-56.17293 0.772156,-79.39319 0,0 -48.929417,-24.20283 -71.707989,-38.19169 0,0 -37.725293,36.25375 -39.340513,55.21756 0,0 8.06823,41.97434 40.199339,72.41817 0,0 32.773251,9.8955 70.077007,-10.05085" />
    <path
       inkscape:connector-curvature="0"
       id="path672"
       style="fill:#292929;fill-opacity:1;fill-rule:nonzero;stroke:none"
       d="m 242.86024,250.62506 c 8.97434,-31.13124 9.47861,-64.61207 0.94944,-97.60745 -0.0829,-0.3301 -0.16546,-0.67187 -0.24835,-1.00198 -0.65003,9.4955 -2.21009,22.83191 -5.9842,29.7875 0,0 9.41556,39.96262 5.28296,68.82193" />
    <path
       inkscape:connector-curvature="0"
       id="path676"
       style="fill:#292929;fill-opacity:1;fill-rule:nonzero;stroke:none"
       d="m 151.74239,37.847954 c 0,0 13.64272,1.937935 28.10092,8.291565 C 147.82646,17.781201 107.3159,-0.59616819 63.819143,-5.5982926 86.987734,-0.42140455 127.96316,11.944096 151.74239,37.847954" />
    <path
       inkscape:connector-curvature="0"
       id="path680"
       style="fill:#292929;fill-opacity:1;fill-rule:nonzero;stroke:none"
       d="m -167.64694,167.3125 c -3.93957,24.35429 -3.49833,49.78046 1.9816,75.27654 0.16925,-7.75174 1.30007,-15.52679 4.35323,-21.21631 0,0 -5.41297,-25.08829 -6.33483,-54.06023" />
    <path
       inkscape:connector-curvature="0"
       id="path684"
       style="fill:#292929;fill-opacity:1;fill-rule:nonzero;stroke:none"
       d="m -75.894431,363.53481 c -15.135817,-2.08939 -33.403589,-18.42009 -45.943229,-31.5895 27.190888,32.21477 63.797342,55.60203 104.63095,66.94613 -28.943996,-11.7713 -58.687721,-35.35663 -58.687721,-35.35663" />
    <path
       d="M 61.971108,179.58168 0.0214232,217.3889 c -4.3965562,2.69135 -11.6689962,2.93214 -16.2428322,0.55147 l -55.031803,-28.67289 c -4.577777,-2.38067 -4.451717,-2.63311 0.267888,-0.55148 l 53.692353,23.63582 c 4.723539,2.08551 12.2441727,1.81754 16.80619057,-0.58255 L 61.67564,179.06905 c 4.558079,-2.40009 4.692024,-2.17095 0.29531,0.51263"
       style="opacity:0.19999701;fill:#292929;fill-opacity:1;fill-rule:nonzero;stroke:none"
       id="path700"
       inkscape:connector-curvature="0" />
    <path
       d="m 153.40057,219.57109 c 0,0 8.39916,53.97867 -2.99801,83.12536 l 40.58935,17.23948 -36.13764,-18.73467 c 0,0 8.79311,-36.12559 -1.4537,-81.63017"
       style="opacity:0.19999701;fill:#292929;fill-opacity:1;fill-rule:nonzero;stroke:none"
       id="path704"
       inkscape:connector-curvature="0" />
    <path
       d="m 193.1697,323.06381 c 0,0 -9.80558,27.04176 -44.22951,52.30094 0,0 32.36354,-17.67444 44.22951,-52.30094"
       style="opacity:0.19999701;fill:#292929;fill-opacity:1;fill-rule:nonzero;stroke:none"
       id="path708"
       inkscape:connector-curvature="0" />
    <path
       d="m 77.479196,91.183494 c 0,0 -40.010238,-31.104049 -77.57006615,-39.56261 0,0 -2.00129995,-13.911187 3.38802735,-37.255729 0,0 -2.8443671,22.602766 -0.7839734,35.399351 0,0 37.1540522,7.437164 74.9660122,41.418988"
       style="opacity:0.19999701;fill:#292929;fill-opacity:1;fill-rule:nonzero;stroke:none"
       id="path712"
       inkscape:connector-curvature="0" />
    <path
       d="m -76.61774,102.15942 c 0,0 -8.525224,37.24797 -3.313176,81.78163 0,0 -0.657905,-51.73392 4.502925,-74.7134 0.669731,-2.98263 3.340752,-7.89932 5.562672,-10.03532 8.430672,-8.13622 31.024085,-27.356339 67.6029596,-42.494755 0,0 -41.9682026,10.563492 -74.3553806,45.461845"
       style="opacity:0.19999701;fill:#292929;fill-opacity:1;fill-rule:nonzero;stroke:none"
       id="path716"
       inkscape:connector-curvature="0" />
    <path
       d="m -84.173827,186.3326 c 0,0 -35.530953,32.77401 -39.884173,55.08939 0,0 1.82008,-26.94467 39.884173,-55.08939"
       style="opacity:0.19999701;fill:#292929;fill-opacity:1;fill-rule:nonzero;stroke:none"
       id="path720"
       inkscape:connector-curvature="0" />
    <path
       d="M 243.14506,153.17374 C 225.87794,79.912806 170.9525,24.963228 103.23529,3.5372021 119.63965,26.897279 131.99019,53.601166 138.90807,82.965344 168.31299,207.70388 89.568937,332.32979 -36.97388,361.31338 c -15.175211,3.47197 -30.346478,5.37883 -45.344409,5.88759 47.192066,33.35655 108.1411,47.32211 169.153167,33.33713 C 199.28981,374.78571 269.27621,264.03215 243.14506,153.17374"
       style="opacity:0.10000598;fill:#292929;fill-opacity:1;fill-rule:nonzero;stroke:none"
       id="path736"
       inkscape:connector-curvature="0" />
    <text
       transform="scale(1.0680314,0.93630203)"
       sodipodi:linespacing="125%"
       id="text4576"
       y="613.3172"
       x="-331.85336"
       style="font-size:114.05186462px;font-style:normal;font-weight:normal;line-height:125%;letter-spacing:0px;word-spacing:0px;fill:#292929;fill-opacity:1;stroke:none;font-family:Sans"
       xml:space="preserve"><tspan
         style="font-style:normal;font-variant:normal;font-weight:bold;font-stretch:normal;fill:#292929;fill-opacity:1;font-family:Droid Sans;-inkscape-font-specification:Droid Sans Bold"
         y="613.3172"
         x="-331.85336"
         id="tspan4578"
         sodipodi:role="line">FÚTBOL SALA</tspan></text>
    <text
       style="font-size:46.9380188px"
       id="text790"
       x="-146.36021"
       y="708.73596"
       transform="scale(1.0071749,0.99287619)">
      <tspan
         style="font-size:101.69904327px;font-variant:normal;font-weight:normal;font-stretch:normal;writing-mode:lr-tb;fill:#f1f1f1;fill-opacity:1;fill-rule:nonzero;stroke:none;font-family:ChunkFive;-inkscape-font-specification:ChunkFive"
         x="-146.36021 -106.69753 -31.847092 35.27441 115.31123 190.26337"
         y="708.73596"
         sodipodi:role="line"
         id="tspan792">-CLUB-</tspan>
    </text>
    <text
       sodipodi:linespacing="125%"
       id="text4576-3"
       style="font-size:20.99633598px;font-style:normal;font-weight:normal;line-height:125%;letter-spacing:0px;word-spacing:0px;fill:#292929;fill-opacity:1;stroke:none;font-family:Sans"
       xml:space="preserve"
       transform="matrix(-3.6251163,0,0,-5.2686577,2885.5606,1763.7896)"><textPath
         xlink:href="#path4715"
         id="textPath4717"><tspan
   rotate="0 0 0 0 0 0 0 0 0 0 0 0 0 0 0 0 0 0 0 0 0"
   id="tspan4578-3"
   style="font-style:normal;font-variant:normal;font-weight:bold;font-stretch:normal;fill:#292929;fill-opacity:1;font-family:Droid Sans;-inkscape-font-specification:Droid Sans Bold">SESIÓN ENTRANAMIENTO</tspan></textPath></text>
  </g>
</svg>
